nColumns=19
nRows=71
DataType=double
version=3
OpenSimVersion=4.1
endheader
time	ground_force_calcn_r_vx	ground_force_calcn_r_vy	ground_force_calcn_r_vz	ground_force_calcn_r_px	ground_force_calcn_r_py	ground_force_calcn_r_pz	ground_force_calcn_r_mx	ground_force_calcn_r_my	ground_force_calcn_r_mz	ground_force_calcn_l_vx	ground_force_calcn_l_vy	ground_force_calcn_l_vz	ground_force_calcn_l_px	ground_force_calcn_l_py	ground_force_calcn_l_pz	ground_force_calcn_l_mx	ground_force_calcn_l_my	ground_force_calcn_l_mz
0	-112.702	639.811	-51.0269	0.167934	0	-0.156526	-0.0405678	0.230304	-0.0183674	0	0	0	0	0	0	0	0	0
0.01	-112.571	646.484	-53.0082	0.170369	0	-0.156022	-0.0469426	0.269587	-0.0221046	0	0	0	0	0	0	0	0	0
0.02	-112.081	653.217	-55.0576	0.173511	0	-0.155353	-0.0531406	0.309707	-0.0261042	0	0	0	0	0	0	0	0	0
0.03	-111.125	659.564	-57.0637	0.176896	0	-0.154613	-0.0588857	0.349507	-0.0302383	0	0	0	0	0	0	0	0	0
0.04	-109.602	664.979	-58.9052	0.180463	0	-0.153809	-0.0638287	0.387261	-0.0343044	0	0	0	0	0	0	0	0	0
0.05	-107.441	668.875	-60.4746	0.184159	0	-0.152947	-0.0674862	0.420136	-0.0379855	0	0	0	0	0	0	0	0	0
0.06	-104.606	670.702	-61.6896	0.187939	0	-0.152027	-0.06935	0.444652	-0.040898	0	0	0	0	0	0	0	0	0
0.07	-101.1	670.018	-62.5034	0.191774	0	-0.151051	-0.069023	0.457435	-0.0426724	0	0	0	0	0	0	0	0	0
0.08	-96.9571	666.534	-62.9072	0.195639	0	-0.150011	-0.0663337	0.456013	-0.0430383	0	0	0	0	0	0	0	0	0
0.09	-92.2391	660.143	-62.9206	0.199524	0	-0.148903	-0.0614049	0.439467	-0.0418872	0	0	0	0	0	0	0	0	0
0.1	-87.0284	650.923	-62.5831	0.203421	0	-0.147721	-0.0546153	0.408491	-0.0392744	0	0	0	0	0	0	0	0	0
0.11	-81.4228	639.121	-61.947	0.207328	0	-0.146463	-0.0465024	0.365017	-0.0353793	0	0	0	0	0	0	0	0	0
0.12	-75.5297	625.135	-61.0717	0.211242	0	-0.14513	-0.0376607	0.311706	-0.0304517	0	0	0	0	0	0	0	0	0
0.13	-69.4612	609.469	-60.0189	0.215156	0	-0.143724	-0.0286552	0.251427	-0.0247599	0	0	0	0	0	0	0	0	0
0.14	-63.3287	592.69	-58.8536	0.219062	0	-0.142256	-0.0199594	0.186799	-0.018549	0	0	0	0	0	0	0	0	0
0.15	-57.2363	575.384	-57.6439	0.222949	0	-0.14074	-0.0119419	0.120049	-0.0120269	0	0	0	0	0	0	0	0	0
0.16	-51.2769	558.111	-56.4601	0.226803	0	-0.139197	-0.004867	0.0529737	-0.00535898	0	0	0	0	0	0	0	0	0
0.17	-45.5284	541.382	-55.3697	0.230608	0	-0.137651	0.00109508	-0.0130217	0.00133179	0	0	0	0	0	0	0	0	0
0.18	-40.0513	525.651	-54.4306	0.234353	0	-0.136133	0.00586994	-0.0770397	0.00797738	0	0	0	0	0	0	0	0	0
0.19	-34.8882	511.302	-53.6854	0.238025	0	-0.134682	0.00947603	-0.138875	0.0145816	0	0	0	0	0	0	0	0	0
0.2	-30.0653	498.653	-53.1585	0.241616	0	-0.133343	0.0120105	-0.199202	0.0212358	0	0	0	0	0	0	0	0	0
0.21	-25.5938	487.95	-52.8543	0.245123	0	-0.132163	0.0136198	-0.259665	0.0281267	0	0	0	0	0	0	0	0	0
0.22	-21.4706	479.38	-52.7579	0.248551	0	-0.131194	0.0144667	-0.323003	0.0355479	0	0	0	0	0	0	0	0	0
0.23	-17.6781	473.079	-52.8363	0.251907	0	-0.130482	0.014685	-0.392981	0.0438905	0	0	0	0	0	0	0	0	0
0.24	-14.1821	469.142	-53.0422	0.2552	0	-0.13007	0.0143278	-0.473963	0.0535873	0	0	0	0	0	0	0	0	0
0.25	-10.9315	467.634	-53.3194	0.258437	0	-0.129988	0.0133325	-0.570348	0.0650307	0	0	0	0	0	0	0	0	0
0.26	-7.86054	468.59	-53.6092	0.26162	0	-0.130252	0.0115086	-0.686063	0.0784893	0	0	0	0	0	0	0	0	0
0.27	-4.89177	472.011	-53.8573	0.264748	0	-0.130861	0.00853947	-0.823981	0.0940178	0	0	0	0	0	0	0	0	0
0.28	-1.94035	477.86	-54.0186	0.26781	0	-0.131795	0.00400085	-0.985311	0.111382	0	0	0	0	0	0	0	0	0
0.29	1.08135	486.059	-54.059	0.270797	0	-0.133017	-0.00260143	-1.16933	0.130051	0	0	0	0	0	0	0	0	0
0.3	4.26053	496.472	-53.9562	0.273693	0	-0.134473	-0.0117841	-1.37318	0.149236	0	0	0	0	0	0	0	0	0
0.31	7.68133	508.896	-53.6996	0.276483	0	-0.136104	-0.0240268	-1.5918	0.167969	0	0	0	0	0	0	0	0	0
0.32	11.4204	523.049	-53.288	0.279157	0	-0.137839	-0.0396985	-1.81818	0.185235	0	0	0	0	0	0	0	0	0
0.33	15.5419	538.56	-52.7273	0.281704	0	-0.139616	-0.0589719	-2.0435	0.200067	0	0	0	0	0	0	0	0	0
0.34	20.0935	554.967	-52.0285	0.284122	0	-0.141372	-0.081732	-2.25737	0.21163	0	0	0	0	0	0	0	0	0
0.35	25.1016	571.715	-51.2059	0.286412	0	-0.143061	-0.1075	-2.44842	0.219293	0	0	0	0	0	0	0	0	0
0.36	30.5681	588.16	-50.2754	0.288579	0	-0.144643	-0.135388	-2.60499	0.222672	0	0	0	0	0	0	0	0	0
0.37	36.4668	603.579	-49.2514	0.290636	0	-0.146093	-0.164107	-2.71621	0.22164	0	0	0	0	0	0	0	0	0
0.38	42.7385	617.188	-48.1421	0.292596	0	-0.147398	-0.192038	-2.77322	0.216318	0	0	0	0	0	0	0	0	0
0.39	49.2891	628.175	-46.9435	0.294474	0	-0.148554	-0.217385	-2.77051	0.20704	0	0	0	0	0	0	0	0	0
0.4	55.9904	635.729	-45.6357	0.296287	0	-0.149568	-0.238403	-2.70688	0.194313	0	0	0	0	0	0	0	0	0
0.41	62.6827	639.082	-44.1836	0.29805	0	-0.150451	-0.253629	-2.58588	0.178778	0	0	0	0	0	0	0	0	0
0.42	69.177	637.541	-42.5422	0.29978	0	-0.151217	-0.262081	-2.41536	0.161173	0	0	0	0	0	0	0	0	0
0.43	75.2582	630.522	-40.6638	0.301489	0	-0.151886	-0.26338	-2.20663	0.142311	0	0	0	0	0	0	0	0	0
0.44	80.6895	617.585	-38.5076	0.303191	0	-0.152473	-0.257797	-1.97314	0.123029	6.83045	25.8591	-4.11523	0.652464	0	-0.324398	0.0340695	0.128982	-0.0205263
0.45	85.2208	598.463	-36.0494	0.304896	0	-0.152992	-0.246185	-1.72883	0.104139	5.80468	45.0439	-3.93598	0.705649	0	-0.334951	0.0331082	0.256917	-0.0224497
0.46	88.5982	573.096	-33.2904	0.306616	0	-0.153455	-0.229835	-1.48669	0.0863595	3.77182	68.8744	-3.53312	0.733097	0	-0.340029	0.017776	0.324594	-0.016651
0.47	90.5802	541.661	-30.2622	0.308365	0	-0.153873	-0.210264	-1.25736	0.0702479	0.458106	97.542	-2.84115	0.750593	0	-0.342785	0.00175372	0.37341	-0.0108765
0.48	90.956	504.594	-27.0278	0.310152	0	-0.15425	-0.188973	-1.04836	0.0561537	-4.36821	131.054	-1.78952	0.763285	0	-0.344429	-0.0140265	0.420819	-0.00574623
0.49	89.5674	462.613	-23.6763	0.311993	0	-0.15459	-0.167206	-0.863613	0.0441994	-10.7562	169.355	-0.306128	0.773335	0	-0.34549	-0.0302908	0.476925	-0.000862095
0.5	86.3375	416.716	-20.3145	0.313907	0	-0.154894	-0.145786	-0.703649	0.0343023	-18.5918	212.343	1.6863	0.781768	0	-0.346226	-0.0480615	0.548926	0.00435925
0.51	81.302	368.162	-17.0538	0.315924	0	-0.15516	-0.125097	-0.566481	0.0262402	-27.6778	259.754	4.26459	0.78911	0	-0.346776	-0.0684563	0.642457	0.0105477
0.52	74.6374	318.406	-13.9973	0.318077	0	-0.155386	-0.105186	-0.448728	0.0197263	-37.7563	311.039	7.48996	0.795658	0	-0.347215	-0.0924598	0.76169	0.0183418
0.53	66.6692	268.983	-11.227	0.320414	0	-0.155562	-0.0858926	-0.346541	0.0144642	-48.5051	365.283	11.3931	0.801588	0	-0.347593	-0.12063	0.908445	0.0283343
0.54	57.8484	221.38	-8.79102	0.323008	0	-0.155677	-0.0670853	-0.256728	0.0101947	-59.5373	421.186	15.9534	0.807016	0	-0.347937	-0.152916	1.08178	0.0409747
0.55	48.6845	176.904	-6.69939	0.325975	0	-0.155711	-0.0487673	-0.177205	0.00671079	-70.4195	477.191	21.0949	0.812023	0	-0.348263	-0.188754	1.27908	0.0565433
0.56	39.6678	136.583	-4.93308	0.329525	0	-0.155631	-0.0310542	-0.106924	0.00386189	-80.7356	531.779	26.7079	0.81668	0	-0.348588	-0.227248	1.49681	0.075175
0.57	31.203	101.105	-3.46018	0.334059	0	-0.15537	-0.0140304	-0.0454617	0.00155587	-90.1216	583.675	32.6467	0.821043	0	-0.348915	-0.267174	1.73036	0.0967843
0.58	23.5748	70.8158	-2.25078	0.340403	0	-0.154777	0.00242019	0.00726997	-0.000231066	-98.2647	631.859	38.7145	0.825153	0	-0.34924	-0.306957	1.97379	0.120936
0.59	16.9416	45.7456	-1.28313	0.350555	0	-0.153457	0.0188989	0.0510307	-0.00143137	-104.924	675.516	44.6684	0.829044	0	-0.349557	-0.344763	2.21964	0.146774
0.6	11.3566	25.6567	-0.536159	0.370776	0	-0.150072	0.0375254	0.0847768	-0.00177162	-109.934	713.987	50.2543	0.832746	0	-0.349855	-0.378774	2.46001	0.173149
0.61	0	0	0	0	0	0	0	0	0	-113.21	746.75	55.2428	0.836286	0	-0.350128	-0.407358	2.68698	0.198776
0.62	0	0	0	0	0	0	0	0	0	-114.736	773.408	59.444	0.839689	0	-0.350371	-0.429141	2.89274	0.222336
0.63	0	0	0	0	0	0	0	0	0	-114.551	793.673	62.7209	0.842976	0	-0.350581	-0.443157	3.07044	0.242645
0.64	0	0	0	0	0	0	0	0	0	-112.75	807.354	64.9964	0.846166	0	-0.35076	-0.449007	3.21513	0.258836
0.65	0	0	0	0	0	0	0	0	0	-109.475	814.348	66.2557	0.84928	0	-0.350913	-0.446895	3.32431	0.270467
0.66	0	0	0	0	0	0	0	0	0	-104.907	814.66	66.5438	0.852345	0	-0.351049	-0.437562	3.39792	0.277552
0.67	0	0	0	0	0	0	0	0	0	-99.2568	808.433	65.9544	0.855384	0	-0.35118	-0.422161	3.43844	0.280519
0.68	0	0	0	0	0	0	0	0	0	-92.7502	795.975	64.6143	0.858433	0	-0.351322	-0.402079	3.45061	0.280108
0.69	0	0	0	0	0	0	0	0	0	-85.6125	777.778	62.6675	0.861519	0	-0.351486	-0.378713	3.44056	0.277214
0.7	0	0	0	0	0	0	0	0	0	-78.0616	754.521	60.2622	0.864672	0	-0.351688	-0.35329	3.4148	0.272733
